<svg width="260" height="260" viewBox="0 0 260 260" fill="none" xmlns="http://www.w3.org/2000/svg">
<path d="M142.429 260C152.881 260 155.652 259.814 163.073 258.627C164.021 258.46 164.561 258.367 167.22 257.903C167.74 257.791 168.615 257.624 169.117 257.513C169.638 257.402 170.475 257.235 170.977 257.142C171.498 257.049 172.242 256.882 172.651 256.789C174.511 256.325 174.939 256.232 175.627 256.028C176.036 255.898 176.65 255.769 176.984 255.713C177.319 255.657 177.635 255.546 177.691 255.454C177.747 255.361 177.97 255.286 178.174 255.286C178.602 255.286 179.681 254.971 180.22 254.711C180.406 254.618 180.722 254.544 180.908 254.544C181.112 254.544 181.336 254.451 181.392 254.358C181.448 254.247 181.745 254.173 182.043 254.173C182.34 254.173 182.638 254.098 182.694 253.987C182.75 253.894 183.01 253.802 183.252 253.802C183.493 253.802 183.735 253.727 183.791 253.653C183.847 253.579 184.312 253.393 184.832 253.245C185.353 253.096 185.817 252.911 185.874 252.837C185.929 252.762 186.134 252.688 186.338 252.688C186.524 252.688 186.841 252.614 187.027 252.521C187.194 252.429 187.604 252.261 187.901 252.131C188.218 252.001 188.608 251.834 188.775 251.741C188.961 251.649 189.24 251.574 189.389 251.574C189.538 251.574 189.817 251.5 190.002 251.408C190.319 251.259 190.914 250.999 191.769 250.665C192.271 250.48 193.925 249.738 194.354 249.515C194.54 249.422 194.819 249.347 194.968 249.347C195.117 249.347 195.247 249.255 195.247 249.162C195.247 249.051 195.359 248.977 195.507 248.977C195.656 248.977 196.085 248.81 196.494 248.624C196.885 248.438 198.837 247.473 200.827 246.489C204.751 244.559 205.532 244.133 205.625 243.91C205.662 243.836 205.849 243.78 206.053 243.78C206.238 243.78 206.405 243.725 206.406 243.632C206.406 243.558 206.722 243.353 207.113 243.167C207.485 243 208.229 242.611 208.731 242.296C209.251 241.98 209.791 241.683 209.94 241.609C210.089 241.535 210.814 241.089 211.558 240.588C212.302 240.106 212.99 239.697 213.102 239.697C213.194 239.697 213.288 239.641 213.288 239.549C213.288 239.474 213.53 239.307 213.808 239.177C214.106 239.066 214.515 238.788 214.738 238.583C214.961 238.379 215.203 238.213 215.296 238.213C215.371 238.213 215.612 238.064 215.817 237.879C216.021 237.712 216.319 237.47 216.486 237.377C217.453 236.765 219.573 235.225 219.926 234.891C220.149 234.668 220.41 234.501 220.503 234.501C220.596 234.501 220.931 234.26 221.247 233.945C221.582 233.648 221.916 233.388 221.991 233.387C222.084 233.387 222.4 233.164 222.697 232.868C222.995 232.589 223.553 232.144 223.925 231.866C224.297 231.587 224.707 231.253 224.855 231.123C224.986 230.993 225.394 230.659 225.747 230.381C226.101 230.121 226.752 229.564 227.161 229.175C227.589 228.785 228.184 228.284 228.463 228.043C230.713 226.261 238.431 218.597 240.645 215.924C241.091 215.386 241.742 214.644 242.077 214.292C242.43 213.921 243.006 213.252 243.378 212.789C243.769 212.325 244.179 211.841 244.309 211.711C244.42 211.582 244.531 211.396 244.531 211.34C244.533 211.264 245.035 210.671 245.647 210.005C246.261 209.337 246.763 208.743 246.764 208.668C246.764 208.594 246.875 208.427 247.005 208.297C247.525 207.722 247.674 207.276 247.451 206.979C247.319 206.83 246.316 206.107 245.182 205.365C244.067 204.605 243.12 203.937 243.081 203.843C243.044 203.769 242.895 203.695 242.747 203.695C242.598 203.695 242.486 203.621 242.486 203.546C242.486 203.454 242.263 203.268 241.984 203.119C241.686 202.971 241.426 202.804 241.37 202.748C241.312 202.691 240.475 202.116 239.51 201.468C238.543 200.819 237.707 200.244 237.651 200.169C237.576 200.076 233.261 197.106 232.108 196.364C231.941 196.253 231.644 196.031 231.439 195.845C231.235 195.678 230.973 195.529 230.843 195.529C230.713 195.529 230.583 195.455 230.546 195.38C230.506 195.249 228.425 193.766 227.273 193.024C227.106 192.913 226.883 192.765 226.79 192.69C226.604 192.56 225.952 192.133 225.022 191.539C224.854 191.427 224.092 190.889 223.33 190.314C222.568 189.758 221.563 189.089 221.117 188.829L220.317 188.384L219.815 189.016C216.226 193.729 209.158 200.911 204.75 204.363C204.508 204.567 204.006 204.975 203.635 205.291C203.263 205.588 202.258 206.385 201.384 207.053C200.51 207.703 199.766 208.297 199.71 208.353C199.65 208.412 198.444 209.245 197.014 210.19C194.801 211.675 192.996 212.769 189.314 214.866C187.398 215.961 182.378 218.375 180.537 219.098C179.495 219.507 179.011 219.711 177.542 220.379C177.059 220.583 176.539 220.768 176.408 220.768C176.278 220.768 176.091 220.843 175.998 220.917C175.885 221.01 174.937 221.344 173.859 221.678C172.781 222.03 171.739 222.364 171.535 222.457C171.33 222.55 170.698 222.735 170.14 222.902C169.582 223.051 168.485 223.348 167.722 223.552C164.877 224.35 162.013 225.018 159.632 225.407C158.926 225.519 157.921 225.686 157.4 225.779C156.898 225.871 155.726 226.038 154.797 226.15C153.885 226.28 152.714 226.447 152.193 226.559C151.691 226.651 148.418 226.781 144.94 226.836C138.803 226.929 133.93 226.744 131.27 226.336C130.601 226.225 129.523 226.057 128.853 225.965C126.175 225.575 123.906 225.185 122.53 224.869C121.414 224.591 119.963 224.294 119.219 224.164C118.884 224.109 118.568 223.997 118.512 223.904C118.455 223.812 118.195 223.737 117.917 223.737C117.638 223.737 116.95 223.57 116.392 223.366C115.835 223.162 115.184 222.995 114.961 222.995C114.737 222.995 114.495 222.903 114.439 222.81C114.383 222.698 114.086 222.624 113.788 222.624C113.491 222.624 113.193 222.531 113.137 222.438C113.081 222.327 112.822 222.252 112.58 222.252C112.338 222.252 112.077 222.16 112.022 222.067C111.966 221.956 111.705 221.882 111.463 221.882C111.222 221.882 110.98 221.808 110.924 221.734C110.869 221.659 110.404 221.473 109.883 221.325C109.363 221.177 108.898 220.991 108.842 220.917C108.786 220.843 108.6 220.768 108.395 220.768C108.209 220.768 107.688 220.583 107.242 220.379C106.814 220.156 106.275 219.914 106.07 219.84C105.866 219.747 105.364 219.543 104.955 219.376C104.546 219.191 103.913 218.931 103.56 218.782C101.068 217.724 99.97 217.168 99.9514 216.964C99.9518 216.852 100.398 216.76 100.956 216.723C101.513 216.685 102.052 216.593 102.164 216.482C102.257 216.389 102.667 216.315 103.076 216.315C103.486 216.315 104.062 216.24 104.378 216.147C104.694 216.054 105.308 215.887 105.754 215.776C107.019 215.442 108.079 215.163 108.581 215.015C108.842 214.941 109.679 214.681 110.441 214.459C112.412 213.865 113.993 213.345 114.495 213.14C114.718 213.048 115.128 212.881 115.425 212.769C115.704 212.658 116.075 212.492 116.243 212.399C116.429 212.306 116.67 212.231 116.764 212.231C117.061 212.231 123.217 209.336 123.459 209.076C123.515 209.02 123.813 208.853 124.11 208.705C124.426 208.557 124.705 208.389 124.761 208.334C124.817 208.278 125.189 208.074 125.598 207.852C126.565 207.351 127.254 206.961 127.365 206.85C127.421 206.794 127.682 206.645 127.96 206.497C128.239 206.349 128.648 206.089 128.834 205.885C129.038 205.699 129.262 205.551 129.318 205.551C129.468 205.55 131.102 204.438 131.419 204.122C131.549 203.992 131.902 203.75 132.2 203.565C132.516 203.398 132.758 203.175 132.758 203.101C132.758 203.027 132.87 202.952 133 202.952C133.112 202.952 133.484 202.693 133.818 202.396C134.153 202.081 134.45 201.839 134.506 201.839C134.599 201.839 135.12 201.449 135.622 201.004C135.734 200.892 136.031 200.67 136.273 200.484C138.114 199.222 146.075 191.279 146.763 190.036C146.874 189.832 147.004 189.646 147.06 189.59C147.134 189.535 147.469 189.127 147.822 188.663C148.176 188.199 148.567 187.716 148.697 187.587C148.827 187.457 148.938 187.271 148.938 187.215C148.938 187.141 149.143 186.863 149.384 186.603C149.979 185.954 152.469 182.246 152.472 182.001C152.472 181.889 152.547 181.796 152.64 181.796C152.733 181.796 152.844 181.647 152.9 181.462C153.012 181.146 153.606 180.107 153.774 179.94C153.922 179.81 157.196 173.222 157.68 172.109C157.884 171.626 158.052 171.107 158.052 170.977C158.052 170.847 158.126 170.661 158.219 170.55C158.405 170.362 160.059 165.596 160.301 164.538C160.376 164.185 160.544 163.554 160.655 163.145C161.232 161.141 161.715 158.803 162.161 155.908C163.333 148.373 163.259 140.412 161.957 133.638C161.157 129.463 160.562 126.846 160.115 125.566C160.022 125.306 159.855 124.73 159.706 124.266C159.576 123.802 159.409 123.357 159.316 123.246C159.242 123.153 159.167 122.93 159.167 122.744C159.167 122.559 159.093 122.262 158.981 122.076C158.888 121.909 158.628 121.222 158.405 120.555C158.182 119.887 157.939 119.275 157.846 119.163C157.754 119.071 157.68 118.866 157.68 118.718C157.68 118.365 154.406 111.758 153.737 110.774C153.459 110.349 153.217 109.96 153.216 109.903C153.216 109.829 152.918 109.309 152.528 108.715C150.947 106.247 150.184 105.077 150.035 104.892C149.942 104.78 149.422 104.093 148.901 103.389C148.362 102.665 147.823 101.979 147.692 101.849C147.562 101.7 147.208 101.291 146.93 100.92C145.888 99.5098 144.456 97.9694 140.569 94.0356C139.193 92.6439 137.65 91.048 137.147 90.4911C136.645 89.9343 135.083 88.3006 133.707 86.853C132.312 85.4241 130.378 83.3826 129.41 82.3434C128.443 81.2856 127.272 80.0423 126.807 79.5413C126.342 79.0588 125.003 77.6297 123.831 76.3864C122.66 75.1245 121.228 73.6217 120.67 73.0463C120.112 72.471 118.512 70.7825 117.136 69.335C115.76 67.8689 114.253 66.2913 113.788 65.8088C113.323 65.3448 111.91 63.8411 110.626 62.4678C109.343 61.1131 107.93 59.6102 107.465 59.1277C106.999 58.6635 105.326 56.9003 103.746 55.2303C102.165 53.5787 100.156 51.4812 99.2822 50.5905C98.4081 49.6997 97.0321 48.2708 96.2324 47.4172C95.4141 46.5635 93.4977 44.5223 91.9541 42.8892C90.4105 41.2561 88.3091 39.0477 87.2863 37.99C85.0918 35.7074 84.6824 35.2806 81.6138 32.033C80.3307 30.6784 78.825 29.0823 78.2669 28.5068C77.709 27.9315 76.0348 26.1683 74.5469 24.6094C73.0591 23.0506 71.3481 21.2504 70.7344 20.6195C70.1207 20.0071 69.2468 19.0793 68.7818 18.5782C66.9592 16.5368 56.2279 5.49463 56.0791 5.49463C56.0605 5.49844 56.0605 27.7669 56.0791 54.9893C56.0956 77.3943 56.1053 90.0675 56.1707 97.526C57.2998 105.607 59.35 105.316 59.7326 107.172C59.9743 108.378 60.0669 108.75 60.5319 110.457C61.0898 112.591 61.0699 113.507 62.6879 115.845C63.3201 116.755 63.7654 117.462 64.843 119.617C65.9958 121.325 66.3093 122.703 68.076 123.927C68.4292 124.169 68.6152 125.006 70.7701 127.161C71.4026 127.959 73.7041 129.854 74.5411 129.855C74.6713 129.855 76.1576 131.471 77.2352 132.01C78.3128 132.548 78.9263 132.958 79.3912 133.088C79.8567 133.218 81.3417 134.09 81.5463 134.165C82.2158 134.424 83.7011 135.243 85.3173 135.782C86.9338 136.32 88.7619 137.07 90.1674 137.398C91.5007 137.708 92.5212 137.994 93.5306 138.121C94.3705 138.226 95.1833 138.364 96.3066 138.575C97.4784 138.798 99.7845 139.447 100.249 139.688C100.435 139.781 100.696 139.856 100.844 139.856C100.993 139.856 101.421 140.022 101.83 140.207C102.22 140.393 103.299 140.913 104.21 141.359C105.14 141.785 105.921 142.212 105.94 142.305C105.977 142.379 106.089 142.453 106.201 142.453C106.424 142.453 108.097 143.585 108.171 143.79C108.209 143.864 108.358 143.938 108.507 143.938C108.655 143.938 108.767 144.012 108.767 144.123C108.767 144.216 108.86 144.309 108.953 144.309C109.402 144.312 113.529 148.151 114.719 149.691C115.072 150.155 115.481 150.638 115.611 150.786C115.76 150.935 116.076 151.398 116.337 151.806C116.597 152.233 117.081 152.976 117.415 153.495C120.856 158.784 122.734 165.911 122.474 172.703C122.418 174.187 122.287 175.802 122.176 176.322C122.083 176.823 121.897 177.787 121.785 178.455C121.041 182.445 118.401 188.255 115.742 191.725C114.235 193.692 110.812 197.107 109.325 198.127C108.972 198.368 108.638 198.628 108.581 198.684C108.116 199.259 104.099 201.505 101.513 202.637C99.6537 203.454 96.6968 204.214 93.7958 204.641C91.2293 204.993 85.6869 204.715 83.4737 204.103C80.8701 203.379 77.7082 201.951 76.7039 201.041C76.4993 200.874 76.2762 200.725 76.1832 200.725C75.7353 200.723 71.0134 196.234 68.9679 193.841C68.41 193.191 67.8514 192.541 67.7212 192.412C67.5909 192.282 67.1821 191.78 66.7917 191.298C66.4013 190.816 66.0484 190.389 65.9923 190.333C65.9644 190.305 65.8659 190.189 65.731 190.022L64.7649 188.788C64.6299 188.621 64.5315 188.505 64.5035 188.478C64.4476 188.422 64.1879 188.087 63.9462 187.735C63.7045 187.382 63.4437 187.048 63.3879 186.993C63.3321 186.937 63.0908 186.584 62.8306 186.214C62.5708 185.825 62.3105 185.509 62.254 185.508C62.1796 185.508 62.0303 185.248 61.9001 184.951C61.7699 184.636 61.6026 184.394 61.5096 184.394C61.4167 184.394 61.3428 184.283 61.3428 184.153C61.3426 184.041 61.1751 183.726 60.9706 183.466C60.5433 182.91 58.0001 179.039 57.995 178.92C57.995 178.883 57.7347 178.4 57.4001 177.862C55.6891 174.986 52.657 168.88 51.6899 166.3C51.4482 165.688 51.1877 165.02 51.1133 164.815C51.0388 164.611 50.779 163.944 50.556 163.332C50.333 162.72 50.0726 162.07 49.9794 161.903C49.8864 161.717 49.8116 161.438 49.8116 161.289C49.8115 161.141 49.737 160.862 49.6255 160.677C49.4394 160.324 48.9373 158.877 48.6584 157.857C48.5655 157.504 48.3985 156.91 48.3055 156.558C48.1939 156.205 48.0446 155.611 47.9516 155.258C47.8586 154.905 47.6917 154.275 47.5987 153.867C47.4871 153.458 47.3005 152.753 47.1889 152.289C47.096 151.825 46.9107 151.12 46.8177 150.712C46.2598 148.503 45.9619 146.926 45.3482 142.732C44.8461 139.484 44.6974 136.329 44.6974 129.833C44.6974 123.331 44.7882 121.656 45.327 117.652C45.2885 117.464 45.2551 117.258 45.2325 117.032C44.8829 113.539 44.5219 109.263 44.5219 106.835C44.5219 104.864 43.88 61.2961 43.6386 44.9613C41.9832 46.8798 40.5155 48.5979 39.4394 50.0168C38.8822 50.7582 39.0246 50.5358 38.9323 50.6647C38.8207 50.7761 38.5418 51.1664 38.2814 51.519C38.0397 51.8715 37.5933 52.4652 37.3143 52.8178C37.0167 53.1704 36.7005 53.5605 36.6075 53.6905C36.4959 53.8204 36.4214 53.9874 36.4214 54.0617C36.4207 54.155 36.1792 54.5071 35.9007 54.8591C35.38 55.4901 33.4082 58.4039 32.1807 60.334C31.8646 60.835 31.53 61.3363 31.4556 61.4476C30.9906 62.0047 28.9633 65.5299 27.8475 67.664C27.4012 68.5362 26.9738 69.2793 26.918 69.335C26.7878 69.4278 23.4585 76.1818 22.4912 78.2792C20.836 81.9351 17.6933 90.4355 16.782 93.7945C16.6146 94.3699 16.3164 95.4274 16.1119 96.1511C15.554 98.1183 14.6988 101.96 14.0851 105.245C13.9921 105.746 13.8245 106.58 13.7129 107.1C13.3781 108.696 12.8574 111.962 12.6156 114.152C12.0391 119.089 11.5186 126.902 11.5 130.669C11.5 134.084 11.9646 141.432 12.4295 144.866C12.5225 145.534 12.6901 146.87 12.8017 147.835C12.9133 148.8 13.0806 150.006 13.1922 150.526C14.3081 156.297 14.8851 159.174 15.0339 159.749C15.2757 160.677 15.5176 161.642 15.7966 162.774C16.9125 167.525 20.1477 176.86 22.5655 182.26C23.1791 183.652 26.7862 190.869 27.4194 192.003C27.6797 192.467 28.071 193.135 28.2756 193.488C28.4987 193.84 28.9073 194.601 29.2235 195.158C29.5396 195.714 29.9301 196.402 30.1346 196.68C30.3206 196.94 30.4702 197.218 30.4702 197.274C30.4729 197.334 30.9737 198.149 31.5858 199.093C32.1991 200.039 32.794 200.947 32.8875 201.096C33.5381 202.154 35.7868 205.491 35.9933 205.699C36.1232 205.828 36.2348 206.014 36.2353 206.07C36.2353 206.144 36.4217 206.404 36.6634 206.664C36.8866 206.924 37.3885 207.574 37.779 208.13C38.3928 208.984 39.4157 210.283 40.4943 211.582C40.6619 211.787 41.1636 212.417 41.6282 212.974C42.0932 213.53 42.596 214.124 42.7448 214.272C42.8936 214.421 43.3026 214.885 43.656 215.294C47.1338 219.395 53.8658 226.113 57.2506 228.859C57.6038 229.156 58.0687 229.564 58.292 229.769C58.4966 229.973 58.962 230.344 59.2967 230.604C59.6315 230.863 60.0038 231.142 60.1154 231.253C60.2272 231.346 60.6171 231.662 61.0073 231.94C61.3792 232.218 61.789 232.571 61.9377 232.701C62.0679 232.831 62.4773 233.146 62.8306 233.387C63.1839 233.629 63.5182 233.889 63.574 233.945C63.63 234 63.9652 234.26 64.3184 234.501C64.6717 234.742 65.006 235.003 65.0618 235.058C65.1181 235.114 65.4532 235.374 65.8062 235.615C66.1594 235.874 66.6239 236.208 66.81 236.394C67.0146 236.579 67.294 236.728 67.4242 236.728C67.5542 236.728 67.6652 236.784 67.6652 236.858C67.6664 236.929 67.9278 237.144 68.293 237.396L69.0836 237.916C69.4488 238.167 69.7099 238.379 69.7113 238.435C69.7113 238.528 69.8044 238.583 69.8974 238.583C70.0092 238.584 70.8462 239.085 71.7574 239.697C72.6682 240.309 73.4673 240.81 73.5239 240.811C73.5797 240.811 74.119 241.126 74.6954 241.516C75.2718 241.905 76.0156 242.332 76.3134 242.481C76.6291 242.629 76.9079 242.796 76.9642 242.852C77.02 242.908 77.4298 243.149 77.8947 243.39C78.3597 243.631 79.4012 244.189 80.2195 244.634C83.251 246.267 89.4439 249.218 92.1219 250.276C92.3265 250.35 92.8842 250.591 93.3677 250.814C93.8512 251.036 94.3724 251.203 94.5026 251.203C94.6513 251.203 94.819 251.259 94.8748 251.333C95.0064 251.445 96.1777 251.89 97.7944 252.428C98.2594 252.576 98.799 252.781 99.0036 252.873C99.2088 252.966 100.212 253.3 101.235 253.634C102.258 253.95 103.262 254.284 103.467 254.358C103.672 254.432 104.211 254.6 104.675 254.729C106.386 255.212 106.833 255.342 107.242 255.49C107.484 255.583 107.875 255.657 108.116 255.657C108.358 255.657 108.6 255.732 108.655 255.825C108.712 255.917 108.99 256.029 109.269 256.084C109.771 256.177 110.478 256.362 112.078 256.771C113.286 257.068 114.402 257.328 115.462 257.513C116.02 257.624 116.913 257.791 117.415 257.903C117.936 257.996 118.885 258.163 119.554 258.274C120.224 258.385 121.227 258.552 121.785 258.645C128.518 259.759 132.256 260 142.429 260Z" fill="url(#paint0_linear_86_3)"/>
<mask id="mask0_86_3" style="mask-type:alpha" maskUnits="userSpaceOnUse" x="56" y="52" width="87" height="87">
<path d="M142.357 95.4035C142.357 119.21 123.058 138.509 99.2518 138.509C75.4454 138.509 56.1465 119.21 56.1465 95.4035C56.1465 71.5972 75.4454 52.2983 99.2518 52.2983C109.026 62.5037 121.419 75.4353 142.357 95.4035Z" fill="url(#paint1_linear_86_3)"/>
</mask>
<g mask="url(#mask0_86_3)">
<path d="M56.0792 54.9893C56.1164 105.43 56.1164 106.544 56.8045 109.884C57.0462 111.09 57.1392 111.461 57.6042 113.169C58.1621 115.303 60.1521 119.367 61.7701 121.705C62.4024 122.615 63.0534 123.561 63.2022 123.803C64.3552 125.51 68.1306 129.351 69.8974 130.576C70.2508 130.817 70.5855 131.077 70.6413 131.133C71.2736 131.931 77.6713 135.401 78.5082 135.401C78.6384 135.401 78.8244 135.476 78.9174 135.55C79.029 135.643 79.4753 135.81 79.9403 135.939C80.4052 136.069 80.9445 136.255 81.1491 136.329C81.8186 136.589 83.7156 137.053 85.6126 137.424C86.1334 137.517 88.0117 137.684 89.7971 137.814C92.8658 137.999 93.8329 138.111 96.3064 138.575C97.4781 138.797 99.7842 139.447 100.249 139.688C100.435 139.781 100.696 139.855 100.844 139.855C100.993 139.855 101.421 140.022 101.83 140.208C102.221 140.393 103.299 140.913 104.211 141.358C105.14 141.785 105.922 142.212 105.94 142.305C105.977 142.379 106.089 142.453 106.2 142.453C106.424 142.453 108.097 143.585 108.172 143.79C108.209 143.864 108.358 143.938 108.507 143.938C108.655 143.938 108.767 144.012 108.767 144.124C108.767 144.216 108.86 144.309 108.953 144.309C109.399 144.309 113.528 148.151 114.718 149.691C115.072 150.155 115.481 150.637 115.611 150.786C115.76 150.934 116.076 151.398 116.336 151.807C116.597 152.233 117.08 152.976 117.415 153.495C120.856 158.784 122.734 165.911 122.474 172.703C122.418 174.188 122.288 175.802 122.176 176.322C122.083 176.823 121.897 177.788 121.786 178.456C121.042 182.446 118.401 188.255 115.741 191.725C114.235 193.692 110.813 197.107 109.325 198.127C108.972 198.369 108.637 198.629 108.581 198.684C108.116 199.26 104.099 201.505 101.514 202.637C99.654 203.454 96.697 204.215 93.7957 204.641C91.2292 204.994 85.687 204.716 83.4739 204.103C80.8702 203.379 77.7085 201.95 76.7042 201.041C76.4997 200.874 76.2765 200.726 76.1835 200.726C75.7371 200.726 71.0133 196.235 68.9675 193.841C68.4096 193.191 67.8516 192.542 67.7214 192.412C67.5913 192.282 67.1821 191.781 66.7915 191.298C66.401 190.816 66.0476 190.389 65.9918 190.333C65.936 190.277 65.6013 189.869 65.2479 189.405C64.8946 188.941 64.5598 188.533 64.504 188.477C64.4482 188.422 64.1878 188.088 63.9461 187.735C63.7043 187.382 63.4439 187.048 63.3881 186.993C63.3323 186.937 63.0906 186.584 62.8302 186.213C62.5698 185.824 62.3095 185.508 62.2537 185.508C62.1793 185.508 62.0305 185.248 61.9003 184.951C61.7701 184.636 61.6027 184.395 61.5097 184.395C61.4168 184.395 61.3424 184.283 61.3424 184.153C61.3424 184.042 61.175 183.726 60.9704 183.467C60.5427 182.91 57.9947 179.031 57.9947 178.92C57.9947 178.883 57.7344 178.4 57.3996 177.862C55.6886 174.986 52.6571 168.88 51.6901 166.3C51.4483 165.688 51.1879 165.02 51.1135 164.816C51.0391 164.612 50.7788 163.944 50.5556 163.331C50.3324 162.719 50.072 162.069 49.979 161.902C49.8861 161.717 49.8117 161.438 49.8117 161.29C49.8117 161.141 49.7373 160.863 49.6257 160.677C49.4397 160.325 48.9376 158.877 48.6586 157.857C48.5656 157.504 48.3982 156.91 48.3052 156.557C48.1936 156.205 48.0449 155.611 47.9519 155.258C47.8589 154.906 47.6915 154.275 47.5985 153.867C47.4869 153.458 47.301 152.753 47.1894 152.289C47.0964 151.825 46.9104 151.12 46.8174 150.712C46.2595 148.503 45.9619 146.926 45.3482 142.732C44.846 139.484 44.6972 136.329 44.6972 129.834C44.6972 123.246 44.7902 121.613 45.3482 117.493C45.8689 113.651 46.2136 112.132 46.523 109.38C46.8325 106.628 47.7845 101.445 47.5985 100.22C48.1395 89.9823 47.5985 85.3404 47.5985 68.4297C47.5985 51.5189 47.7845 39.7982 47.5985 39.8725C47.3567 39.9467 41.703 47.0465 40.1408 49.1064C39.5828 49.8488 39.0249 50.5354 38.9319 50.6653C38.8203 50.7766 38.5413 51.1664 38.281 51.519C38.0392 51.8716 37.5928 52.4654 37.3139 52.818C37.0163 53.1706 36.7002 53.5604 36.6072 53.6903C36.4956 53.8202 36.4212 53.9872 36.4212 54.0614C36.4212 54.1542 36.1794 54.5068 35.9004 54.8594C35.3797 55.4904 33.4083 58.404 32.1809 60.334C31.8647 60.8351 31.5299 61.3362 31.4555 61.4475C30.9906 62.0043 28.9634 65.5303 27.8476 67.6645C27.4012 68.5367 26.9735 69.279 26.9177 69.3347C26.7875 69.4275 23.4584 76.1826 22.4914 78.2797C20.8361 81.9356 17.6931 90.4352 16.7818 93.7942C16.6144 94.3695 16.3169 95.4273 16.1123 96.1511C15.5543 98.1182 14.6988 101.96 14.0851 105.245C13.9921 105.746 13.8247 106.581 13.7131 107.1C13.3784 108.696 12.8576 111.963 12.6159 114.152C12.0393 119.089 11.5186 126.902 11.5 130.669C11.5 134.084 11.9649 141.433 12.4299 144.866C12.5229 145.534 12.6903 146.87 12.8019 147.835C12.9134 148.8 13.0808 150.006 13.1924 150.526C14.3083 156.298 14.8848 159.174 15.0336 159.749C15.2754 160.677 15.5171 161.642 15.7961 162.774C16.912 167.525 20.148 176.86 22.5657 182.26C23.1795 183.652 26.7875 190.871 27.4198 192.003C27.6802 192.467 28.0707 193.135 28.2753 193.488C28.4985 193.841 28.9076 194.601 29.2238 195.158C29.54 195.715 29.9305 196.402 30.1351 196.68C30.3211 196.94 30.4699 197.218 30.4699 197.274C30.4699 197.329 30.972 198.146 31.5857 199.093C32.1995 200.039 32.7946 200.948 32.8876 201.097C33.5385 202.155 35.7889 205.495 35.9934 205.699C36.1236 205.829 36.2352 206.015 36.2352 206.07C36.2352 206.145 36.4212 206.404 36.663 206.664C36.8861 206.924 37.3883 207.574 37.7788 208.13C38.3926 208.984 39.4154 210.283 40.4941 211.582C40.6615 211.786 41.1636 212.417 41.6286 212.974C42.0935 213.531 42.5957 214.125 42.7445 214.273C42.8933 214.421 43.3024 214.885 43.6558 215.294C47.1336 219.395 53.866 226.113 57.2508 228.86C57.6042 229.157 58.0691 229.565 58.2923 229.769C58.4969 229.973 58.9618 230.344 59.2966 230.604C59.6314 230.864 60.0033 231.142 60.1149 231.254C60.2265 231.346 60.617 231.662 61.0076 231.94C61.3796 232.219 61.7887 232.571 61.9375 232.701C62.0677 232.831 62.4768 233.147 62.8302 233.388C63.1836 233.629 63.5183 233.889 63.5741 233.945C63.6299 234 63.9647 234.26 64.318 234.501C64.6714 234.743 65.0061 235.002 65.0619 235.058C65.1177 235.114 65.4525 235.373 65.8059 235.615C66.1592 235.875 66.6242 236.209 66.8101 236.394C67.0147 236.58 67.2937 236.728 67.4239 236.728C67.5541 236.728 67.6657 236.784 67.6657 236.858C67.6657 236.951 68.1306 237.304 68.6885 237.656C69.2465 238.009 69.7114 238.361 69.7114 238.436C69.7114 238.528 69.8044 238.584 69.8974 238.584C70.009 238.584 70.8459 239.085 71.7572 239.698C72.6685 240.31 73.4682 240.811 73.524 240.811C73.5798 240.811 74.1191 241.126 74.6957 241.516C75.2722 241.906 76.0161 242.333 76.3137 242.481C76.6298 242.63 76.9088 242.797 76.9646 242.852C77.0204 242.908 77.4295 243.149 77.8945 243.391C78.3594 243.632 79.4009 244.189 80.2192 244.634C83.2507 246.267 89.4438 249.218 92.1219 250.276C92.3265 250.35 92.8844 250.591 93.3679 250.814C93.8515 251.036 94.3722 251.203 94.5024 251.203C94.6512 251.203 94.8186 251.259 94.8744 251.333C95.0046 251.445 96.1762 251.89 97.7942 252.428C98.2592 252.577 98.7985 252.781 99.0031 252.874C99.2077 252.967 100.212 253.301 101.235 253.635C102.258 253.95 103.262 254.284 103.467 254.358C103.671 254.433 104.211 254.6 104.675 254.73C106.386 255.212 106.833 255.342 107.242 255.49C107.484 255.583 107.874 255.657 108.116 255.657C108.358 255.657 108.6 255.732 108.655 255.824C108.711 255.917 108.99 256.029 109.269 256.084C109.771 256.177 110.478 256.363 112.077 256.771C113.286 257.068 114.402 257.328 115.462 257.513C116.02 257.625 116.913 257.792 117.415 257.903C117.936 257.996 118.884 258.163 119.554 258.274C120.223 258.385 121.228 258.552 121.786 258.645C128.518 259.759 132.256 260 142.429 260C152.881 260 155.652 259.814 163.073 258.627C164.021 258.46 164.561 258.367 167.22 257.903C167.741 257.792 168.615 257.625 169.117 257.513C169.638 257.402 170.475 257.235 170.977 257.142C171.498 257.049 172.242 256.882 172.651 256.789C174.511 256.326 174.938 256.233 175.626 256.029C176.036 255.899 176.649 255.769 176.984 255.713C177.319 255.657 177.635 255.546 177.691 255.453C177.747 255.36 177.97 255.286 178.174 255.286C178.602 255.286 179.681 254.971 180.22 254.711C180.406 254.618 180.722 254.544 180.908 254.544C181.113 254.544 181.336 254.451 181.392 254.358C181.448 254.247 181.745 254.173 182.043 254.173C182.34 254.173 182.638 254.099 182.694 253.987C182.749 253.894 183.01 253.802 183.252 253.802C183.493 253.802 183.735 253.727 183.791 253.653C183.847 253.579 184.312 253.393 184.832 253.245C185.353 253.096 185.818 252.911 185.874 252.837C185.93 252.762 186.134 252.688 186.339 252.688C186.525 252.688 186.841 252.614 187.027 252.521C187.194 252.428 187.603 252.261 187.901 252.131C188.217 252.001 188.608 251.834 188.775 251.742C188.961 251.649 189.24 251.575 189.389 251.575C189.538 251.575 189.817 251.5 190.003 251.408C190.319 251.259 190.914 250.999 191.769 250.665C192.272 250.48 193.927 249.737 194.355 249.515C194.541 249.422 194.819 249.348 194.968 249.348C195.117 249.348 195.247 249.255 195.247 249.162C195.247 249.051 195.359 248.977 195.508 248.977C195.656 248.977 196.084 248.81 196.493 248.624C196.884 248.438 198.837 247.473 200.827 246.49C204.751 244.56 205.532 244.133 205.625 243.91C205.662 243.836 205.848 243.78 206.053 243.78C206.239 243.78 206.406 243.725 206.406 243.632C206.406 243.558 206.722 243.353 207.113 243.168C207.485 243.001 208.229 242.611 208.731 242.296C209.251 241.98 209.791 241.683 209.94 241.609C210.088 241.535 210.814 241.089 211.558 240.588C212.301 240.106 212.99 239.698 213.101 239.698C213.194 239.698 213.287 239.642 213.287 239.549C213.287 239.475 213.529 239.308 213.808 239.178C214.105 239.067 214.515 238.788 214.738 238.584C214.961 238.38 215.203 238.213 215.296 238.213C215.37 238.213 215.612 238.064 215.816 237.879C216.021 237.712 216.319 237.471 216.486 237.378C217.453 236.765 219.573 235.225 219.927 234.891C220.15 234.668 220.41 234.501 220.503 234.501C220.596 234.501 220.931 234.26 221.247 233.945C221.582 233.648 221.917 233.388 221.991 233.388C222.084 233.388 222.4 233.165 222.698 232.868C222.995 232.59 223.553 232.144 223.925 231.866C224.297 231.588 224.706 231.254 224.855 231.124C224.985 230.994 225.394 230.66 225.748 230.381C226.101 230.122 226.752 229.565 227.161 229.175C227.589 228.785 228.184 228.284 228.463 228.043C230.713 226.261 238.432 218.597 240.645 215.925C241.091 215.386 241.742 214.644 242.077 214.292C242.43 213.92 243.007 213.252 243.379 212.788C243.769 212.324 244.178 211.842 244.308 211.712C244.42 211.582 244.532 211.396 244.532 211.341C244.532 211.267 245.034 210.673 245.648 210.005C246.261 209.337 246.763 208.743 246.763 208.668C246.763 208.594 246.875 208.427 247.005 208.297C247.526 207.722 247.675 207.277 247.452 206.98C247.321 206.831 246.317 206.107 245.183 205.365C244.067 204.604 243.118 203.936 243.081 203.843C243.044 203.769 242.895 203.695 242.746 203.695C242.597 203.695 242.486 203.621 242.486 203.546C242.486 203.454 242.263 203.268 241.984 203.12C241.686 202.971 241.426 202.804 241.37 202.748C241.314 202.693 240.477 202.117 239.51 201.468C238.543 200.818 237.706 200.243 237.65 200.169C237.576 200.076 233.261 197.107 232.108 196.364C231.941 196.253 231.643 196.03 231.439 195.845C231.234 195.678 230.974 195.529 230.844 195.529C230.713 195.529 230.583 195.455 230.546 195.381C230.509 195.251 228.426 193.766 227.273 193.024C227.105 192.913 226.882 192.764 226.789 192.69C226.603 192.56 225.952 192.133 225.022 191.539C224.855 191.428 224.093 190.89 223.33 190.315C222.568 189.758 221.563 189.09 221.117 188.83L220.317 188.385L219.815 189.015C216.226 193.729 209.158 200.911 204.751 204.363C204.509 204.567 204.007 204.975 203.635 205.291C203.263 205.588 202.259 206.386 201.385 207.054C200.51 207.703 199.767 208.297 199.711 208.353C199.655 208.409 198.446 209.244 197.014 210.19C194.801 211.675 192.997 212.77 189.314 214.867C187.399 215.962 182.377 218.374 180.536 219.098C179.495 219.506 179.011 219.71 177.542 220.379C177.058 220.583 176.538 220.768 176.408 220.768C176.277 220.768 176.091 220.843 175.998 220.917C175.887 221.01 174.938 221.344 173.86 221.678C172.781 222.03 171.739 222.364 171.535 222.457C171.33 222.55 170.698 222.735 170.14 222.902C169.582 223.051 168.485 223.348 167.722 223.552C164.877 224.35 162.013 225.018 159.632 225.408C158.926 225.519 157.921 225.686 157.4 225.779C156.898 225.872 155.727 226.039 154.797 226.15C153.885 226.28 152.714 226.447 152.193 226.558C151.691 226.651 148.418 226.781 144.94 226.837C138.803 226.93 133.93 226.744 131.27 226.336C130.601 226.224 129.522 226.057 128.853 225.965C126.175 225.575 123.906 225.185 122.529 224.87C121.414 224.591 119.963 224.294 119.219 224.164C118.884 224.109 118.568 223.997 118.512 223.905C118.457 223.812 118.196 223.738 117.917 223.738C117.638 223.738 116.95 223.571 116.392 223.366C115.834 223.162 115.183 222.995 114.96 222.995C114.737 222.995 114.495 222.902 114.439 222.81C114.384 222.698 114.086 222.624 113.788 222.624C113.491 222.624 113.193 222.531 113.138 222.439C113.082 222.327 112.821 222.253 112.58 222.253C112.338 222.253 112.077 222.16 112.022 222.067C111.966 221.956 111.705 221.882 111.464 221.882C111.222 221.882 110.98 221.808 110.924 221.733C110.869 221.659 110.404 221.474 109.883 221.325C109.362 221.177 108.897 220.991 108.841 220.917C108.786 220.843 108.6 220.768 108.395 220.768C108.209 220.768 107.688 220.583 107.242 220.379C106.814 220.156 106.275 219.915 106.07 219.84C105.866 219.748 105.364 219.543 104.954 219.376C104.545 219.191 103.913 218.931 103.56 218.783C101.067 217.725 99.9702 217.168 99.9516 216.964C99.9516 216.853 100.398 216.76 100.956 216.723C101.514 216.686 102.053 216.593 102.165 216.481C102.258 216.389 102.667 216.314 103.076 216.314C103.485 216.314 104.062 216.24 104.378 216.147C104.694 216.055 105.308 215.888 105.754 215.776C107.019 215.442 108.079 215.164 108.581 215.015C108.841 214.941 109.678 214.681 110.441 214.459C112.412 213.865 113.993 213.345 114.495 213.141C114.718 213.048 115.127 212.881 115.425 212.77C115.704 212.658 116.076 212.491 116.243 212.399C116.429 212.306 116.671 212.232 116.764 212.232C117.062 212.232 123.218 209.337 123.459 209.077C123.515 209.021 123.813 208.854 124.11 208.706C124.426 208.557 124.705 208.39 124.761 208.334C124.817 208.279 125.189 208.075 125.598 207.852C126.565 207.351 127.253 206.961 127.365 206.85C127.421 206.794 127.681 206.646 127.96 206.497C128.239 206.349 128.648 206.089 128.834 205.885C129.039 205.699 129.262 205.551 129.318 205.551C129.466 205.551 131.103 204.437 131.419 204.122C131.549 203.992 131.903 203.751 132.2 203.565C132.517 203.398 132.758 203.175 132.758 203.101C132.758 203.027 132.87 202.953 133 202.953C133.112 202.953 133.484 202.693 133.818 202.396C134.153 202.08 134.451 201.839 134.506 201.839C134.599 201.839 135.12 201.449 135.622 201.004C135.734 200.893 136.032 200.67 136.273 200.484C138.114 199.222 146.074 191.28 146.763 190.036C146.874 189.832 147.004 189.646 147.06 189.591C147.134 189.535 147.469 189.127 147.823 188.663C148.176 188.199 148.566 187.716 148.697 187.587C148.827 187.457 148.938 187.271 148.938 187.215C148.938 187.141 149.143 186.863 149.385 186.603C149.98 185.953 152.472 182.242 152.472 182.001C152.472 181.889 152.546 181.796 152.639 181.796C152.732 181.796 152.844 181.648 152.9 181.462C153.011 181.147 153.607 180.108 153.774 179.941C153.923 179.811 157.196 173.223 157.679 172.109C157.884 171.627 158.051 171.107 158.051 170.977C158.051 170.847 158.126 170.662 158.219 170.55C158.405 170.365 160.06 165.595 160.302 164.537C160.376 164.185 160.544 163.554 160.655 163.146C161.232 161.141 161.715 158.803 162.162 155.908C163.333 148.373 163.259 140.412 161.957 133.638C161.157 129.463 160.562 126.846 160.116 125.566C160.023 125.306 159.855 124.73 159.707 124.266C159.576 123.803 159.409 123.357 159.316 123.246C159.242 123.153 159.167 122.93 159.167 122.745C159.167 122.559 159.093 122.262 158.981 122.077C158.888 121.91 158.628 121.223 158.405 120.555C158.182 119.887 157.94 119.274 157.847 119.163C157.754 119.07 157.679 118.866 157.679 118.718C157.679 118.365 154.406 111.758 153.737 110.775C153.458 110.348 153.216 109.958 153.216 109.903C153.216 109.828 152.918 109.309 152.528 108.715C150.947 106.247 150.185 105.077 150.036 104.892C149.943 104.781 149.422 104.094 148.901 103.389C148.362 102.665 147.823 101.978 147.692 101.848C147.562 101.7 147.209 101.292 146.93 100.92C145.888 99.5101 144.456 97.9697 140.569 94.0354C139.193 92.6436 137.65 91.0476 137.147 90.4908C136.645 89.9341 135.083 88.301 133.707 86.8535C132.312 85.4245 130.378 83.3831 129.411 82.3439C128.444 81.2861 127.272 80.0427 126.807 79.5416C126.342 79.0591 125.003 77.6301 123.831 76.3867C122.66 75.1248 121.228 73.6216 120.67 73.0463C120.112 72.471 118.512 70.7822 117.136 69.3347C115.76 67.8686 114.253 66.2912 113.788 65.8087C113.323 65.3447 111.91 63.8415 110.627 62.4682C109.344 61.1135 107.93 59.6103 107.465 59.1278C107 58.6638 105.326 56.9008 103.746 55.2306C102.165 53.5789 100.156 51.4818 99.2821 50.5911C98.408 49.7003 97.0317 48.2713 96.232 47.4176C95.4137 46.564 93.4981 44.5226 91.9545 42.8895C90.4109 41.2564 88.3093 39.048 87.2864 37.9901C85.0919 35.7075 84.6827 35.2807 81.6141 32.033C80.3308 30.6783 78.8244 29.0823 78.2664 28.507C77.7085 27.9317 76.0347 26.1687 74.5469 24.6098C73.059 23.0509 71.348 21.2508 70.7343 20.6198C70.1206 20.0074 69.2465 19.0795 68.7815 18.5785C66.9589 16.5371 56.2279 5.49503 56.0792 5.49503C56.0606 5.49503 56.0606 27.7647 56.0792 54.9893Z" fill="url(#paint2_linear_86_3)"/>
</g>
<path d="M136.291 0.112952C132.59 0.372764 129.13 0.651137 127.55 0.873834C126.787 0.966624 125.485 1.13364 124.667 1.24499C122.621 1.50481 120.743 1.78318 119.739 1.96876C119.274 2.06155 118.399 2.21002 117.786 2.32136C116.763 2.50694 114.81 2.89666 112.95 3.28638C111.779 3.52763 106.534 4.88237 105.604 5.1793C105.139 5.32776 104.135 5.62469 103.372 5.84739C102.61 6.07008 101.81 6.3299 101.606 6.42269C101.401 6.51548 100.899 6.6825 100.49 6.81241C100.081 6.92375 99.411 7.14645 99.0019 7.31348C98.5927 7.46194 97.793 7.72175 97.2351 7.90733C96.0448 8.29705 90.9118 10.3199 89.4611 10.988C88.9218 11.2292 88.4569 11.4334 88.4011 11.4334C88.3639 11.4334 86.6901 12.2314 84.6815 13.2149C80.5713 15.2006 80.7945 14.9037 82.3567 16.444C83.7144 17.7988 89.2008 23.5703 89.7029 24.1642C89.9447 24.4611 90.7072 25.2962 91.4139 26.02C92.102 26.7437 93.3853 28.117 94.2594 29.0635C95.1335 30.01 96.3796 31.3461 97.0491 32.0328C97.7186 32.738 98.8531 33.9257 99.5598 34.668C104.377 39.7158 105.065 40.3839 105.511 40.3839C105.771 40.3839 105.976 40.2911 105.976 40.1983C105.976 40.087 106.181 40.0127 106.422 40.0127C106.683 40.0127 106.943 39.9199 106.999 39.8272C107.055 39.7158 107.241 39.6416 107.39 39.6416C107.538 39.6416 108.022 39.4746 108.431 39.2704C108.859 39.0663 109.361 38.8993 109.528 38.8993C109.714 38.8993 109.919 38.8065 109.975 38.7137C110.03 38.6023 110.254 38.5281 110.458 38.5281C110.644 38.5281 110.96 38.4539 111.146 38.3611C111.314 38.2683 111.834 38.0827 112.299 37.9528C112.764 37.8229 113.211 37.6559 113.322 37.5631C113.415 37.4888 113.713 37.4146 113.992 37.4146C114.271 37.4146 114.55 37.3404 114.605 37.2476C114.661 37.1548 114.977 37.0435 115.312 36.9878C115.647 36.9321 116.242 36.8022 116.633 36.6908C118.734 36.0784 119.069 35.9856 121.226 35.5588C121.691 35.466 122.491 35.299 122.993 35.1876C126.713 34.4268 127.94 34.2412 133.873 33.6659C137.053 33.369 147.654 33.3504 150.797 33.6659C156.376 34.2041 159.91 34.7608 165.266 35.9485C165.75 36.0413 166.419 36.1898 166.754 36.2455C167.089 36.3011 167.405 36.4125 167.461 36.5053C167.517 36.5981 167.796 36.6723 168.093 36.6723C168.391 36.6723 168.688 36.7465 168.744 36.8579C168.8 36.9507 169.097 37.0434 169.414 37.0434C169.711 37.0434 169.953 37.1177 169.953 37.229C169.953 37.3218 170.195 37.4146 170.492 37.4146C170.808 37.4146 171.106 37.4888 171.162 37.6002C171.218 37.693 171.441 37.7858 171.645 37.7858C171.831 37.7858 172.147 37.86 172.333 37.9528C172.501 38.0456 173.486 38.3796 174.509 38.7137C175.532 39.0292 176.722 39.456 177.15 39.6601C177.597 39.8457 178.006 40.0127 178.099 40.0127C178.192 40.0127 178.601 40.1798 179.029 40.3839C179.438 40.588 179.884 40.7551 179.996 40.7551C180.089 40.7551 180.33 40.8293 180.516 40.9221C181.167 41.2747 182.599 41.8685 182.785 41.8685C182.878 41.8685 182.971 41.9428 182.971 42.0541C182.971 42.1469 183.083 42.2397 183.213 42.2397C183.418 42.2397 188.737 44.8193 188.923 45.0234C188.979 45.0791 189.35 45.2832 189.76 45.5059C190.169 45.7101 190.82 46.0812 191.21 46.2854C191.582 46.508 192.177 46.8607 192.531 47.0462C193.87 47.8071 194.037 47.9185 194.39 48.2154C194.595 48.401 194.874 48.5494 195.004 48.5494C195.134 48.5494 195.246 48.6237 195.246 48.735C195.246 48.8278 195.339 48.9206 195.432 48.9206C195.674 48.9206 198.073 50.5166 199.617 51.7043C200.23 52.1682 201.16 52.8363 201.662 53.1889C202.183 53.523 202.629 53.857 202.685 53.9127C202.741 53.9869 203.243 54.3952 203.801 54.8592C204.359 55.3231 204.861 55.7314 204.917 55.7871C204.973 55.8613 205.177 56.0283 205.4 56.1768C206.182 56.715 208.971 59.276 211.333 61.6328C213.714 64.0083 214.606 64.9919 216.243 66.9219C216.708 67.4601 217.173 67.9983 217.285 68.1096C217.396 68.221 218.028 69.0189 218.679 69.8912C219.349 70.7634 220.056 71.6356 220.26 71.8583L220.632 72.248L221.469 71.6913C221.934 71.3758 222.343 71.0603 222.362 70.9675C222.399 70.8933 222.529 70.8191 222.659 70.8191C222.789 70.8191 223.05 70.6706 223.254 70.485C223.44 70.2995 224.036 69.8726 224.538 69.52C225.058 69.186 225.505 68.8334 225.561 68.7777C225.616 68.7035 226.453 68.1282 227.42 67.4786C229.038 66.3837 230.377 65.4372 231.196 64.7692C231.363 64.6207 231.586 64.5093 231.661 64.5093C231.754 64.5093 231.977 64.3609 232.181 64.1753C232.367 63.9897 233.334 63.3031 234.302 62.6535C235.269 62.004 236.106 61.4102 236.124 61.3174C236.161 61.2431 236.31 61.1689 236.459 61.1689C236.608 61.1689 236.719 61.1132 236.719 61.0204C236.719 60.9462 237.184 60.5936 237.742 60.241C238.3 59.8884 238.765 59.5358 238.765 59.443C238.765 59.3688 238.877 59.3131 239.007 59.3131C239.137 59.3131 239.435 59.1461 239.658 58.9419C239.881 58.7378 240.123 58.5708 240.234 58.5708C240.327 58.5708 240.439 58.4965 240.476 58.4223C240.513 58.3295 240.96 57.9955 241.462 57.6429C241.983 57.3088 242.429 56.9562 242.485 56.9006C242.54 56.8263 243.117 56.418 243.787 55.9726C244.456 55.5273 245.033 55.1004 245.051 55.0076C245.088 54.9334 245.237 54.8592 245.367 54.8592C245.498 54.8592 245.646 54.7849 245.683 54.7107C245.721 54.6179 246.13 54.2839 246.632 53.9498C247.116 53.6343 247.506 53.3188 247.506 53.2632C247.506 53.1333 246.93 52.0569 246.744 51.8156C246.651 51.7043 246.13 51.0177 245.609 50.3124C245.07 49.5887 244.493 48.8464 244.307 48.6422C243.842 48.1412 241.964 45.8214 241.276 44.9306C239.007 41.9613 229.596 32.8122 225.468 29.5646C224.854 29.0821 223.98 28.3583 223.515 27.9686C222.194 26.8365 220.93 25.9086 220.725 25.9086C220.614 25.9086 220.539 25.8344 220.539 25.7602C220.539 25.6859 220.297 25.4632 219.981 25.2962C219.684 25.1106 219.33 24.8694 219.2 24.7395C219.07 24.6096 218.419 24.1271 217.749 23.6817C217.08 23.2363 216.503 22.828 216.448 22.7538C216.262 22.5125 213.491 20.7124 213.286 20.7124C213.193 20.7124 213.1 20.6196 213.1 20.5268C213.1 20.4154 213.007 20.3412 212.895 20.3412C212.802 20.3412 212.207 20.0072 211.612 19.5989C211.017 19.1906 210.459 18.8566 210.403 18.8566C210.329 18.8566 210.05 18.7081 209.79 18.504C209.194 18.0771 208.599 17.7431 204.731 15.6275C203.541 14.9779 196.622 11.5447 195.897 11.2478C195.692 11.1735 195.209 10.9694 194.837 10.8024C194.446 10.6354 193.814 10.3756 193.442 10.2085C193.051 10.0415 192.568 9.83737 192.363 9.76314C192.159 9.6889 191.619 9.44765 191.154 9.24351C190.69 9.05793 189.778 8.70532 189.109 8.48263C188.439 8.25993 187.695 7.98156 187.435 7.87021C186.71 7.55473 186.3 7.40626 185.296 7.10934C184.794 6.94231 183.622 6.5526 182.692 6.21855C181.781 5.90306 180.721 5.56902 180.368 5.47623C179.754 5.34632 178.954 5.12363 177.634 4.73391C176.574 4.43698 175.644 4.19572 174.881 4.0287C174.472 3.93591 173.598 3.71321 172.929 3.54619C170.604 2.97089 169.079 2.63685 167.256 2.33992C166.549 2.22857 165.545 2.06155 165.024 1.96876C162.086 1.44914 162.179 1.4677 156.283 0.743932C151.206 0.131516 141.033 -0.183977 136.291 0.112952Z" fill="url(#paint3_linear_86_3)"/>
<path d="M218.355 107.781C216.046 106.545 211.676 106.453 207.365 106.453C203.053 106.453 171.569 109.443 171.273 109.681C171.18 109.76 171.158 109.907 171.231 110.011C171.724 110.776 174.54 118.258 175.149 120.467C175.866 123.049 175.978 123.496 176.603 126.629C178.307 135.005 178.793 141.779 178.255 149.294C177.714 157.01 176.152 164.106 173.44 171.282C173.138 172.101 172.911 172.825 172.951 172.931C172.991 173.038 173.357 172.685 173.778 172.166C173.79 172.152 187.054 158.336 201.893 152.007C209.024 148.966 220.83 143.818 236.696 140.747C238.768 140.346 243.862 139.724 245.962 139.511L248.468 139.212C248.384 138.836 248.132 137.355 247.956 136.653C245.909 128.464 238.582 124.07 230.54 122.082L230.535 122.079C229.837 121.731 227.493 120.652 226.991 119.053C226.348 117.065 224.883 114.044 223.89 112.643C222.517 110.705 220.664 109.016 218.355 107.781Z" fill="url(#paint4_linear_86_3)"/>
<defs>
<linearGradient id="paint0_linear_86_3" x1="27.3318" y1="219.4" x2="256.419" y2="90.0768" gradientUnits="userSpaceOnUse">
<stop stop-color="#109878"/>
<stop offset="0.511938" stop-color="#58CEDC"/>
<stop offset="1" stop-color="#97E2FF"/>
</linearGradient>
<linearGradient id="paint1_linear_86_3" x1="61.9286" y1="66.051" x2="142.435" y2="115.051" gradientUnits="userSpaceOnUse">
<stop stop-color="#109878"/>
<stop offset="0.511938" stop-color="#58CEDC"/>
<stop offset="1" stop-color="#97E2FF"/>
</linearGradient>
<linearGradient id="paint2_linear_86_3" x1="27.3318" y1="219.4" x2="256.419" y2="90.0766" gradientUnits="userSpaceOnUse">
<stop stop-color="#109878"/>
<stop offset="0.511938" stop-color="#58CEDC"/>
<stop offset="1" stop-color="#97E2FF"/>
</linearGradient>
<linearGradient id="paint3_linear_86_3" x1="77.0105" y1="56.2985" x2="164.617" y2="-55.5817" gradientUnits="userSpaceOnUse">
<stop offset="0.448988" stop-color="#58CEDC"/>
<stop offset="1" stop-color="#97E2FF"/>
</linearGradient>
<linearGradient id="paint4_linear_86_3" x1="176.3" y1="117.061" x2="241.913" y2="162.839" gradientUnits="userSpaceOnUse">
<stop stop-color="#1EBBBC"/>
<stop offset="0.511938" stop-color="#58CEDC"/>
<stop offset="1" stop-color="#97E2FF"/>
</linearGradient>
</defs>
</svg>
